<svg width="237" height="438" viewBox="0 0 237 438" fill="none" xmlns="http://www.w3.org/2000/svg">
<path d="M39.5306 24.7871L38.5788 6.67571L41.8955 7.42634L42.1315 20.6308L42.2895 20.6666L48.3959 8.89748L51.4133 9.58038L51.8636 22.8421L52.0132 22.876L57.9137 11.0515L61.2304 11.8021L52.5729 27.7388L49.5306 27.0502L48.8258 14.3339L48.6928 14.3038L42.573 25.4756L39.5306 24.7871Z" fill="#02050A"/>
<path d="M69.8898 33.5248C68.6573 33.0734 67.6868 32.4274 66.9781 31.5869C66.2767 30.7431 65.8588 29.761 65.7245 28.6408C65.5922 27.5153 65.7616 26.3096 66.2325 25.0239C66.6957 23.7594 67.3422 22.7376 68.1722 21.9585C69.0095 21.176 69.9606 20.6773 71.0257 20.4623C72.0927 20.242 73.2131 20.3468 74.3868 20.7767C75.1444 21.0542 75.8144 21.4388 76.3967 21.9305C76.9863 22.4187 77.4471 23.0111 77.7789 23.7075C78.1161 24.4058 78.2905 25.2019 78.302 26.0956C78.3154 26.9839 78.1248 27.967 77.73 29.0447L77.4047 29.933L67.3292 26.2424L68.0444 24.2898L75.3429 26.9631C75.5408 26.4063 75.6016 25.8689 75.5251 25.3507C75.4506 24.8272 75.2485 24.3629 74.9189 23.9578C74.5946 23.5546 74.155 23.2514 73.6002 23.0482C73.008 22.8313 72.435 22.7848 71.8814 22.9087C71.3296 23.0273 70.8434 23.2728 70.4226 23.6451C70.0091 24.014 69.6991 24.4723 69.4925 25.0198L68.8681 26.7244C68.6062 27.4393 68.5122 28.1008 68.586 28.7087C68.6618 29.3113 68.8846 29.8346 69.2544 30.2787C69.6262 30.7174 70.1269 31.0521 70.7564 31.2827C71.1779 31.4371 71.5809 31.5181 71.9653 31.5258C72.3517 31.5282 72.7133 31.4579 73.05 31.315C73.3867 31.1721 73.6826 30.9507 73.9377 30.6508L76.5313 31.9457C76.0987 32.5981 75.5446 33.1031 74.869 33.4607C74.2007 33.815 73.442 34.003 72.5929 34.0248C71.7458 34.0413 70.8448 33.8746 69.8898 33.5248Z" fill="#02050A"/>
<path d="M83.0352 38.4978L90.7296 22.8307L93.4989 24.1908L90.621 30.0506L90.7357 30.107C91.0188 29.8915 91.3693 29.687 91.7872 29.4934C92.2076 29.2948 92.696 29.1897 93.2524 29.1781C93.8113 29.1614 94.435 29.3221 95.1235 29.6602C96.0313 30.1061 96.7358 30.7401 97.2372 31.5624C97.7462 32.3821 97.9932 33.3484 97.9783 34.4615C97.9709 35.572 97.6467 36.7801 97.0055 38.0857C96.3718 39.3759 95.6216 40.3685 94.755 41.0633C93.8884 41.7581 92.9739 42.1636 92.0117 42.2797C91.0495 42.3958 90.1068 42.2272 89.1837 41.7738C88.5105 41.4432 88.0072 41.0567 87.6737 40.6144C87.3402 40.1721 87.1159 39.7265 87.0009 39.2776C86.8935 38.826 86.836 38.4211 86.8284 38.0629L86.6677 37.984L85.7585 39.8353L83.0352 38.4978ZM88.6363 33.9564C88.2631 34.7163 88.0433 35.4344 87.977 36.1108C87.9158 36.7897 88.0103 37.39 88.2605 37.9117C88.5183 38.4307 88.9404 38.8343 89.5269 39.1223C90.1389 39.4229 90.7316 39.5114 91.305 39.3879C91.8809 39.2593 92.4137 38.9607 92.9033 38.4922C93.4005 38.0211 93.8295 37.4184 94.1901 36.684C94.5483 35.9547 94.7619 35.2557 94.8308 34.5869C94.8997 33.9181 94.8065 33.3216 94.5512 32.7974C94.2959 32.2733 93.8597 31.8596 93.2426 31.5566C92.651 31.266 92.0723 31.1749 91.5064 31.2831C90.9405 31.3913 90.4127 31.6733 89.923 32.1291C89.4384 32.5874 89.0095 33.1965 88.6363 33.9564Z" fill="#02050A"/>
<path d="M115.421 57.2149L110.628 53.7485L120.858 39.6057L125.747 43.1422C127.151 44.1578 128.153 45.3134 128.751 46.6089C129.358 47.9031 129.551 49.2738 129.332 50.721C129.113 52.1682 128.472 53.6261 127.41 55.0947C126.344 56.5679 125.154 57.6358 123.841 58.2984C122.532 58.9644 121.159 59.2092 119.723 59.0328C118.291 58.8599 116.857 58.2539 115.421 57.2149ZM114.794 53.3849L116.9 54.9083C117.885 55.6209 118.837 56.0358 119.755 56.1529C120.676 56.2654 121.562 56.0824 122.413 55.604C123.267 55.1209 124.086 54.3385 124.868 53.2566C125.651 52.1747 126.135 51.1571 126.319 50.2038C126.507 49.2458 126.405 48.3548 126.012 47.5308C125.627 46.7056 124.956 45.9466 123.999 45.254L121.816 43.6756L114.794 53.3849Z" fill="#02050A"/>
<path d="M132.723 71.472C131.751 70.5902 131.095 69.6266 130.754 68.5812C130.422 67.5355 130.404 66.4684 130.701 65.38C131.002 64.2873 131.612 63.2339 132.532 62.2197C133.437 61.2223 134.42 60.5188 135.482 60.1091C136.553 59.699 137.621 59.5947 138.689 59.7961C139.761 59.9933 140.759 60.5119 141.685 61.3517C142.283 61.8938 142.759 62.5021 143.114 63.1767C143.476 63.8509 143.68 64.5731 143.726 65.3432C143.776 66.1171 143.638 66.9202 143.312 67.7526C142.99 68.5808 142.444 69.4199 141.673 70.27L141.037 70.9707L133.09 63.7613L134.487 62.2211L140.244 67.4434C140.637 67.002 140.895 66.5268 141.019 66.018C141.147 65.5049 141.135 64.9987 140.982 64.4993C140.833 64.0038 140.54 63.5575 140.102 63.1604C139.635 62.7367 139.121 62.4781 138.562 62.3847C138.006 62.2871 137.463 62.3316 136.933 62.5183C136.411 62.7046 135.952 63.0126 135.554 63.4422L134.335 64.7867C133.823 65.3506 133.487 65.9281 133.327 66.5192C133.17 67.106 133.18 67.6747 133.356 68.2253C133.535 68.7717 133.873 69.2701 134.37 69.7205C134.702 70.0221 135.045 70.2488 135.398 70.4005C135.755 70.548 136.117 70.6189 136.483 70.6132C136.848 70.6075 137.206 70.5136 137.555 70.3317L139.471 72.5071C138.825 72.9488 138.121 73.2083 137.361 73.2856C136.608 73.3624 135.835 73.2513 135.04 72.9521C134.249 72.6487 133.477 72.1553 132.723 71.472Z" fill="#02050A"/>
<path d="M157.009 82.1874L154.898 80.3042C155.055 80.0548 155.161 79.7726 155.213 79.4575C155.269 79.1466 155.244 78.8174 155.137 78.47C155.031 78.1225 154.817 77.7715 154.498 77.4171C154.068 76.9403 153.603 76.6326 153.103 76.4942C152.607 76.3599 152.197 76.4433 151.871 76.7443C151.585 76.995 151.448 77.3058 151.461 77.6766C151.478 78.0516 151.652 78.5373 151.983 79.1337L153.124 81.1117C153.755 82.2104 154.057 83.1774 154.03 84.0128C154.007 84.8524 153.649 85.5882 152.957 86.2203C152.341 86.7678 151.639 87.0755 150.851 87.1434C150.071 87.2117 149.269 87.0516 148.444 86.663C147.619 86.2744 146.842 85.6751 146.111 84.8649C145.038 83.675 144.423 82.4926 144.267 81.3179C144.115 80.1393 144.423 79.0771 145.192 78.1312L147.422 80.1714C147.074 80.6684 146.937 81.1823 147.01 81.713C147.083 82.2438 147.358 82.773 147.833 83.3004C148.324 83.8447 148.83 84.1806 149.35 84.3081C149.875 84.4398 150.301 84.3572 150.63 84.0604C150.909 83.8093 151.042 83.4943 151.029 83.1155C151.02 82.7409 150.863 82.2862 150.557 81.7514L149.409 79.7792C148.763 78.6717 148.467 77.6869 148.524 76.8248C148.585 75.959 148.972 75.2086 149.684 74.5736C150.28 74.029 150.945 73.7235 151.681 73.6569C152.424 73.5907 153.183 73.7445 153.956 74.1184C154.737 74.4927 155.478 75.068 156.178 75.8444C157.206 76.9837 157.771 78.0992 157.876 79.1908C157.984 80.2866 157.695 81.2855 157.009 82.1874Z" fill="#02050A"/>
<path d="M155.163 95.2022L165.552 87.2372L167.429 89.6857L157.04 97.6506L155.163 95.2022ZM167.97 87.3378C167.673 86.95 167.545 86.5178 167.588 86.0412C167.635 85.5611 167.841 85.1811 168.207 84.9011C168.576 84.6176 168.997 84.5171 169.468 84.5996C169.944 84.6787 170.331 84.9121 170.628 85.2999C170.929 85.6922 171.054 86.1261 171.003 86.6017C170.961 87.0783 170.754 87.4583 170.385 87.7418C170.019 88.0218 169.599 88.1223 169.123 88.0432C168.655 87.9652 168.271 87.7301 167.97 87.3378Z" fill="#02050A"/>
<path d="M160.925 112.241C160.325 111.309 159.937 110.428 159.759 109.596C159.577 108.767 159.566 108.014 159.725 107.337C159.884 106.661 160.169 106.079 160.578 105.592L162.648 107.564C162.501 107.808 162.387 108.098 162.305 108.434C162.22 108.773 162.217 109.156 162.296 109.585C162.374 110.021 162.581 110.499 162.916 111.02C163.39 111.756 163.961 112.25 164.63 112.502C165.294 112.757 166.032 112.623 166.844 112.1L168.93 110.758L168.847 110.629C168.493 110.668 168.092 110.649 167.644 110.572C167.2 110.5 166.746 110.316 166.285 110.018C165.826 109.725 165.394 109.264 164.988 108.633C164.444 107.787 164.148 106.893 164.102 105.95C164.064 105.008 164.311 104.079 164.842 103.162C165.382 102.248 166.251 101.404 167.451 100.633C168.66 99.8547 169.809 99.3989 170.898 99.2652C171.996 99.1333 172.981 99.273 173.854 99.6843C174.731 100.092 175.442 100.719 175.987 101.565C176.402 102.21 176.633 102.811 176.681 103.368C176.736 103.927 176.691 104.429 176.545 104.874C176.404 105.317 176.241 105.688 176.057 105.989L176.149 106.133L177.969 104.961L179.616 107.52L168.428 114.719C167.487 115.325 166.564 115.602 165.658 115.549C164.753 115.497 163.897 115.18 163.09 114.598C162.283 114.016 161.561 113.23 160.925 112.241ZM167.489 108.047C167.843 108.596 168.278 108.979 168.794 109.193C169.311 109.408 169.885 109.455 170.516 109.332C171.146 109.21 171.813 108.923 172.515 108.471C173.208 108.025 173.75 107.535 174.142 106.999C174.537 106.468 174.753 105.916 174.791 105.345C174.836 104.775 174.679 104.211 174.319 103.652C173.947 103.074 173.486 102.688 172.936 102.494C172.386 102.301 171.785 102.276 171.133 102.418C170.487 102.557 169.831 102.841 169.167 103.268C168.493 103.702 167.966 104.179 167.586 104.701C167.213 105.225 167.011 105.771 166.978 106.339C166.953 106.909 167.123 107.478 167.489 108.047Z" fill="#02050A"/>
<path d="M180.768 120.736L173.925 124.203L172.531 121.451L184.208 115.534L185.541 118.165L183.557 119.17L183.626 119.307C184.416 119.244 185.153 119.409 185.836 119.802C186.521 120.2 187.085 120.835 187.527 121.707C187.935 122.512 188.118 123.302 188.077 124.074C188.038 124.852 187.775 125.571 187.288 126.232C186.804 126.898 186.094 127.465 185.159 127.932L177.723 131.699L176.329 128.947L183.338 125.396C184.119 125 184.627 124.488 184.863 123.859C185.101 123.235 185.04 122.569 184.68 121.859C184.436 121.377 184.113 121.003 183.71 120.736C183.315 120.471 182.866 120.333 182.362 120.32C181.862 120.313 181.33 120.451 180.768 120.736Z" fill="#02050A"/>
<path d="M186.336 154.384C185.976 153.247 185.872 152.204 186.024 151.256C186.176 150.307 186.531 149.5 187.089 148.835C187.654 148.173 188.378 147.702 189.261 147.422C189.927 147.211 190.561 147.159 191.161 147.267C191.763 147.38 192.36 147.608 192.951 147.951C193.545 148.299 194.159 148.724 194.795 149.226L197.737 151.539C198.156 151.883 198.558 152.116 198.942 152.239C199.328 152.366 199.733 152.363 200.155 152.229C200.513 152.116 200.803 151.857 201.026 151.453C201.252 151.053 201.281 150.591 201.114 150.066C201.003 149.714 200.82 149.429 200.566 149.211C200.32 148.997 200.04 148.857 199.726 148.789C199.414 148.727 199.109 148.743 198.812 148.838C198.449 148.953 198.112 149.17 197.802 149.489C197.494 149.813 197.19 150.201 196.893 150.653C196.597 151.111 196.283 151.597 195.952 152.114L189.279 162.821L188.27 159.636L193.64 150.799C194.05 150.139 194.458 149.497 194.862 148.874C195.269 148.256 195.721 147.71 196.221 147.236C196.727 146.766 197.327 146.42 198.02 146.201C198.806 145.952 199.565 145.911 200.297 146.078C201.035 146.243 201.686 146.594 202.249 147.131C202.814 147.673 203.236 148.383 203.514 149.26C203.792 150.138 203.858 150.945 203.71 151.684C203.563 152.422 203.256 153.052 202.79 153.576C202.324 154.099 201.753 154.468 201.076 154.682C200.29 154.931 199.525 154.96 198.778 154.767C198.037 154.573 197.305 154.209 196.581 153.675L193.053 151.092C192.477 150.667 191.946 150.4 191.459 150.293C190.977 150.183 190.592 150.174 190.305 150.265C189.867 150.404 189.504 150.641 189.217 150.977C188.93 151.312 188.741 151.714 188.652 152.184C188.569 152.657 188.614 153.164 188.786 153.706C188.975 154.302 189.294 154.847 189.743 155.343C190.197 155.836 190.749 156.243 191.399 156.561C192.048 156.88 192.764 157.07 193.546 157.132C194.334 157.192 195.154 157.087 196.004 156.818L196.805 159.345C195.754 159.678 194.802 159.851 193.948 159.866C193.1 159.878 192.349 159.786 191.696 159.587C191.049 159.387 190.5 159.132 190.05 158.822C189.917 158.721 189.785 158.626 189.655 158.536C189.525 158.446 189.394 158.35 189.26 158.249C188.544 157.833 187.937 157.271 187.439 156.565C186.943 155.864 186.575 155.137 186.336 154.384Z" fill="#02050A"/>
<path d="M193.918 185.803L193.108 179.944L210.399 177.555L211.225 183.532C211.462 185.249 211.32 186.771 210.798 188.1C210.282 189.433 209.426 190.52 208.229 191.363C207.032 192.205 205.535 192.75 203.74 192.998C201.939 193.247 200.345 193.126 198.958 192.635C197.571 192.15 196.445 191.328 195.58 190.168C194.715 189.014 194.161 187.559 193.918 185.803ZM196.251 182.702L196.607 185.277C196.774 186.481 197.132 187.456 197.682 188.2C198.238 188.943 198.983 189.457 199.917 189.741C200.857 190.024 201.988 190.074 203.311 189.891C204.633 189.709 205.703 189.354 206.519 188.828C207.341 188.302 207.914 187.612 208.238 186.758C208.568 185.91 208.652 184.9 208.49 183.729L208.122 181.062L196.251 182.702Z" fill="#02050A"/>
<path d="M195.583 208.16C195.548 206.848 195.79 205.708 196.31 204.739C196.835 203.776 197.594 203.025 198.586 202.487C199.583 201.949 200.766 201.661 202.135 201.625C203.481 201.589 204.669 201.813 205.7 202.297C206.736 202.786 207.55 203.486 208.143 204.397C208.742 205.307 209.057 206.387 209.091 207.637C209.113 208.443 209.002 209.208 208.76 209.93C208.524 210.659 208.143 211.305 207.619 211.871C207.094 212.442 206.418 212.898 205.592 213.238C204.771 213.578 203.787 213.764 202.64 213.794L201.694 213.82L201.407 203.094L203.486 203.038L203.694 210.808C204.284 210.786 204.806 210.644 205.26 210.382C205.719 210.12 206.076 209.761 206.331 209.305C206.586 208.855 206.705 208.334 206.69 207.744C206.673 207.113 206.504 206.563 206.185 206.095C205.871 205.625 205.464 205.264 204.962 205.01C204.467 204.762 203.927 204.643 203.341 204.653L201.527 204.702C200.766 204.722 200.116 204.879 199.578 205.172C199.046 205.464 198.642 205.865 198.366 206.372C198.095 206.88 197.969 207.468 197.987 208.139C197.999 208.587 198.072 208.992 198.207 209.352C198.347 209.712 198.546 210.022 198.803 210.282C199.06 210.543 199.375 210.736 199.748 210.862L199.501 213.751C198.735 213.589 198.061 213.261 197.48 212.765C196.904 212.274 196.449 211.638 196.116 210.857C195.788 210.076 195.61 209.177 195.583 208.16Z" fill="#02050A"/>
<path d="M207.987 234.712L195.274 229.102L195.524 225.702L208.922 222.014L208.681 225.295L198.762 227.581L198.752 227.717L208.228 231.44L207.987 234.712Z" fill="#02050A"/>
<path d="M192.791 246.402C193.018 245.11 193.483 244.04 194.185 243.195C194.892 242.355 195.785 241.771 196.864 241.441C197.948 241.112 199.165 241.066 200.514 241.303C201.84 241.536 202.96 241.992 203.873 242.671C204.791 243.357 205.45 244.205 205.849 245.216C206.254 246.227 206.349 247.349 206.133 248.58C205.993 249.374 205.733 250.102 205.352 250.762C204.975 251.428 204.473 251.986 203.846 252.436C203.219 252.891 202.466 253.203 201.588 253.372C200.716 253.542 199.715 253.528 198.584 253.329L197.653 253.166L199.508 242.597L201.556 242.957L200.212 250.612C200.795 250.709 201.335 250.674 201.831 250.507C202.333 250.342 202.755 250.061 203.095 249.665C203.435 249.274 203.656 248.788 203.758 248.206C203.867 247.585 203.812 247.013 203.592 246.49C203.378 245.968 203.051 245.532 202.61 245.184C202.174 244.842 201.668 244.618 201.093 244.511L199.305 244.197C198.555 244.065 197.887 244.09 197.302 244.269C196.722 244.45 196.246 244.762 195.874 245.204C195.508 245.648 195.267 246.2 195.151 246.86C195.073 247.302 195.065 247.713 195.125 248.093C195.191 248.473 195.324 248.817 195.524 249.123C195.724 249.429 195.994 249.682 196.334 249.88L195.517 252.661C194.799 252.35 194.204 251.894 193.733 251.292C193.266 250.697 192.947 249.983 192.776 249.151C192.61 248.321 192.615 247.404 192.791 246.402Z" fill="#02050A"/>
<path d="M206.248 267.527L189.363 263.107L190.144 260.122L207.03 264.542L206.248 267.527Z" fill="#02050A"/>
<path d="M184.868 276.779C185.292 275.573 185.925 274.621 186.767 273.924C187.609 273.226 188.592 272.801 189.718 272.649C190.842 272.502 192.041 272.653 193.317 273.102C194.593 273.551 195.625 274.185 196.415 275.005C197.203 275.83 197.706 276.779 197.926 277.85C198.145 278.921 198.043 280.059 197.619 281.265C197.194 282.471 196.561 283.423 195.72 284.121C194.878 284.818 193.892 285.24 192.763 285.384C191.632 285.535 190.429 285.385 189.153 284.937C187.878 284.488 186.849 283.852 186.066 283.028C185.282 282.21 184.78 281.266 184.561 280.195C184.341 279.124 184.443 277.985 184.868 276.779ZM187.194 277.616C186.964 278.269 186.951 278.879 187.155 279.445C187.365 280.013 187.738 280.511 188.273 280.941C188.807 281.376 189.449 281.725 190.2 281.989C190.955 282.255 191.677 282.385 192.366 282.38C193.057 282.383 193.663 282.229 194.182 281.917C194.701 281.606 195.076 281.123 195.306 280.47C195.541 279.8 195.555 279.178 195.347 278.605C195.137 278.037 194.763 277.535 194.224 277.098C193.688 276.669 193.043 276.321 192.287 276.056C191.537 275.792 190.818 275.659 190.132 275.659C189.443 275.664 188.84 275.822 188.321 276.133C187.805 276.451 187.429 276.946 187.194 277.616Z" fill="#02050A"/>
<path d="M175.638 287.848L191.914 295.533L190.619 298.277L188.661 297.353L188.585 297.514C188.805 297.794 189.015 298.141 189.215 298.556C189.42 298.974 189.532 299.46 189.553 300.017C189.578 300.575 189.427 301.201 189.099 301.895C188.667 302.809 188.044 303.524 187.23 304.038C186.418 304.559 185.456 304.821 184.342 304.823C183.232 304.833 182.019 304.527 180.704 303.906C179.404 303.293 178.4 302.558 177.692 301.702C176.984 300.846 176.564 299.938 176.433 298.978C176.302 298.017 176.457 297.072 176.896 296.142C177.216 295.464 177.595 294.955 178.032 294.615C178.469 294.274 178.911 294.043 179.358 293.921C179.808 293.807 180.212 293.743 180.57 293.73L180.624 293.614L174.32 290.638L175.638 287.848ZM184.704 295.475C183.938 295.113 183.217 294.904 182.539 294.849C181.86 294.798 181.261 294.901 180.743 295.16C180.228 295.425 179.831 295.854 179.552 296.445C179.261 297.061 179.182 297.655 179.314 298.227C179.451 298.8 179.758 299.329 180.234 299.811C180.713 300.301 181.322 300.72 182.062 301.07C182.797 301.417 183.499 301.619 184.169 301.678C184.838 301.737 185.433 301.634 185.954 301.371C186.474 301.108 186.881 300.665 187.174 300.043C187.456 299.447 187.538 298.867 187.421 298.303C187.304 297.739 187.014 297.216 186.551 296.733C186.085 296.256 185.469 295.836 184.704 295.475Z" fill="#02050A"/>
<path d="M171.434 307.632L182.511 314.608L180.94 317.103L179.058 315.918L178.976 316.048C179.465 316.678 179.72 317.372 179.74 318.13C179.764 318.891 179.543 319.641 179.077 320.382C178.605 321.132 178.024 321.649 177.335 321.933C176.647 322.226 175.924 322.281 175.166 322.099L175.093 322.214C175.554 322.847 175.784 323.569 175.783 324.381C175.784 325.201 175.532 326.012 175.026 326.815C174.384 327.834 173.538 328.463 172.488 328.702C171.439 328.94 170.296 328.671 169.06 327.892L161.624 323.21L163.273 320.592L170.305 325.02C170.992 325.453 171.61 325.587 172.157 325.421C172.709 325.259 173.152 324.913 173.485 324.384C173.882 323.754 173.995 323.137 173.825 322.533C173.656 321.937 173.259 321.442 172.634 321.048L165.725 316.698L167.337 314.138L174.477 318.634C175.049 318.994 175.615 319.108 176.175 318.977C176.731 318.851 177.183 318.511 177.531 317.958C177.767 317.583 177.886 317.181 177.888 316.752C177.894 316.327 177.781 315.913 177.55 315.513C177.324 315.115 176.982 314.772 176.526 314.485L169.79 310.243L171.434 307.632Z" fill="#02050A"/>
<path d="M152.792 334.162C153.62 333.144 154.547 332.437 155.573 332.04C156.599 331.652 157.663 331.577 158.766 331.815C159.874 332.056 160.958 332.609 162.021 333.473C163.065 334.322 163.821 335.266 164.287 336.305C164.755 337.351 164.916 338.413 164.773 339.49C164.634 340.571 164.17 341.596 163.381 342.566C162.872 343.191 162.29 343.7 161.636 344.09C160.982 344.489 160.272 344.731 159.506 344.818C158.735 344.91 157.926 344.816 157.077 344.535C156.233 344.259 155.366 343.758 154.475 343.034L153.741 342.437L160.511 334.113L162.125 335.425L157.221 341.455C157.683 341.824 158.171 342.056 158.686 342.152C159.205 342.252 159.71 342.213 160.2 342.033C160.687 341.857 161.117 341.541 161.49 341.082C161.888 340.593 162.118 340.066 162.181 339.502C162.249 338.942 162.175 338.402 161.96 337.883C161.746 337.372 161.413 336.93 160.963 336.556L159.555 335.411C158.964 334.93 158.369 334.626 157.77 334.498C157.176 334.373 156.609 334.414 156.068 334.619C155.532 334.827 155.053 335.192 154.63 335.712C154.347 336.06 154.139 336.415 154.006 336.776C153.878 337.14 153.827 337.505 153.852 337.87C153.878 338.235 153.991 338.587 154.191 338.926L152.123 340.956C151.647 340.335 151.35 339.646 151.231 338.891C151.114 338.144 151.183 337.365 151.439 336.555C151.699 335.749 152.15 334.951 152.792 334.162Z" fill="#02050A"/>
<path d="M147.131 352.476L141.709 347.051L143.891 344.87L153.145 354.129L151.059 356.214L149.487 354.64L149.378 354.749C149.684 355.48 149.756 356.231 149.595 357.003C149.43 357.778 149.002 358.511 148.311 359.202C147.672 359.841 146.979 360.26 146.231 360.461C145.48 360.666 144.715 360.64 143.935 360.382C143.152 360.129 142.393 359.631 141.658 358.887L135.765 352.992L137.947 350.811L143.502 356.368C144.121 356.987 144.766 357.311 145.437 357.339C146.103 357.371 146.718 357.106 147.281 356.544C147.663 356.163 147.918 355.739 148.046 355.273C148.175 354.815 148.167 354.345 148.023 353.863C147.874 353.384 147.577 352.922 147.131 352.476Z" fill="#02050A"/>
<path d="M132.957 372.739L131.428 370.906L137.207 366.086L138.736 367.919L132.957 372.739ZM139.318 371.517L136.949 373.493L129.077 364.056C128.811 363.737 128.559 363.533 128.321 363.443C128.083 363.361 127.857 363.356 127.645 363.43C127.432 363.503 127.228 363.622 127.032 363.786C126.883 363.91 126.757 364.033 126.653 364.157C126.545 364.284 126.465 364.384 126.414 364.456L124.47 362.937C124.56 362.788 124.701 362.589 124.893 362.34C125.081 362.095 125.339 361.828 125.668 361.539C126.247 361.026 126.856 360.67 127.495 360.469C128.138 360.273 128.774 360.268 129.403 360.454C130.027 360.644 130.599 361.055 131.118 361.687L139.318 371.517Z" fill="#02050A"/>
<path d="M46.6914 424.075C46.5635 424.612 46.8955 425.151 47.4328 425.279L56.1884 427.362C56.7256 427.49 57.2648 427.158 57.3927 426.621C57.5205 426.083 57.1886 425.544 56.6513 425.416L48.8685 423.565L50.7202 415.782C50.8481 415.245 50.5161 414.706 49.9788 414.578C49.4416 414.45 48.9024 414.782 48.7745 415.319L46.6914 424.075ZM115.266 381.516L47.14 423.455L48.1885 425.158L116.314 383.219L115.266 381.516Z" fill="#02050A"/>
</svg>
