<svg width="237" height="438" viewBox="0 0 237 438" fill="none" xmlns="http://www.w3.org/2000/svg">
<path d="M39.5287 24.7873L38.5769 6.67596L41.8936 7.42658L42.1296 20.6311L42.2875 20.6668L48.3939 8.89773L51.4114 9.58062L51.8616 22.8424L52.0113 22.8762L57.9118 11.0518L61.2284 11.8024L52.571 27.739L49.5286 27.0505L48.8239 14.3341L48.6909 14.304L42.571 25.4759L39.5287 24.7873Z" fill="#02050A"/>
<path d="M69.8888 33.5248C68.6564 33.0734 67.6858 32.4274 66.9771 31.5869C66.2757 30.7431 65.8578 29.761 65.7236 28.6408C65.5913 27.5153 65.7606 26.3096 66.2316 25.0239C66.6947 23.7594 67.3413 22.7376 68.1712 21.9585C69.0085 21.176 69.9597 20.6773 71.0247 20.4623C72.0917 20.242 73.2121 20.3468 74.3858 20.7767C75.1434 21.0542 75.8134 21.4388 76.3957 21.9305C76.9854 22.4187 77.4461 23.0111 77.778 23.7075C78.1152 24.4058 78.2895 25.2019 78.301 26.0956C78.3145 26.9839 78.1238 27.967 77.7291 29.0447L77.4037 29.933L67.3282 26.2424L68.0434 24.2898L75.342 26.9631C75.5399 26.4063 75.6006 25.8689 75.5241 25.3507C75.4496 24.8272 75.2476 24.3629 74.9179 23.9578C74.5936 23.5546 74.1541 23.2514 73.5992 23.0482C73.007 22.8313 72.4341 22.7848 71.8804 22.9087C71.3286 23.0273 70.8424 23.2728 70.4216 23.6451C70.0081 24.014 69.6981 24.4723 69.4915 25.0198L68.8671 26.7244C68.6052 27.4393 68.5112 28.1008 68.585 28.7087C68.6608 29.3113 68.8836 29.8346 69.2534 30.2787C69.6252 30.7174 70.1259 31.0521 70.7554 31.2827C71.1769 31.4371 71.5799 31.5181 71.9643 31.5258C72.3507 31.5282 72.7123 31.4579 73.049 31.315C73.3858 31.1721 73.6817 30.9507 73.9367 30.6508L76.5303 31.9457C76.0977 32.5981 75.5436 33.1031 74.868 33.4607C74.1997 33.815 73.441 34.003 72.592 34.0248C71.7448 34.0413 70.8438 33.8746 69.8888 33.5248Z" fill="#02050A"/>
<path d="M83.0352 38.4978L90.7296 22.8307L93.4989 24.1908L90.621 30.0506L90.7357 30.107C91.0188 29.8915 91.3693 29.687 91.7872 29.4934C92.2076 29.2948 92.696 29.1897 93.2524 29.1781C93.8113 29.1614 94.435 29.3221 95.1235 29.6602C96.0313 30.1061 96.7358 30.7401 97.2372 31.5624C97.7462 32.3821 97.9932 33.3484 97.9783 34.4615C97.9709 35.572 97.6467 36.7801 97.0055 38.0857C96.3718 39.3759 95.6216 40.3685 94.755 41.0633C93.8884 41.7581 92.9739 42.1636 92.0117 42.2797C91.0495 42.3958 90.1068 42.2272 89.1837 41.7738C88.5105 41.4432 88.0072 41.0567 87.6737 40.6144C87.3402 40.1721 87.1159 39.7265 87.0009 39.2776C86.8935 38.826 86.836 38.4211 86.8284 38.0629L86.6677 37.984L85.7585 39.8353L83.0352 38.4978ZM88.6363 33.9564C88.2631 34.7163 88.0433 35.4344 87.977 36.1108C87.9158 36.7897 88.0103 37.39 88.2605 37.9117C88.5183 38.4307 88.9404 38.8343 89.5269 39.1223C90.1389 39.4229 90.7316 39.5114 91.305 39.3879C91.8809 39.2593 92.4137 38.9607 92.9033 38.4922C93.4005 38.0211 93.8295 37.4184 94.1901 36.684C94.5483 35.9547 94.7619 35.2557 94.8308 34.5869C94.8997 33.9181 94.8065 33.3216 94.5512 32.7974C94.2959 32.2733 93.8597 31.8596 93.2426 31.5566C92.651 31.266 92.0723 31.1749 91.5064 31.2831C90.9405 31.3913 90.4127 31.6733 89.923 32.1291C89.4384 32.5874 89.0095 33.1965 88.6363 33.9564Z" fill="#02050A"/>
<path d="M115.421 57.2149L110.628 53.7485L120.858 39.6057L125.747 43.1422C127.151 44.1578 128.153 45.3134 128.751 46.6089C129.358 47.9031 129.551 49.2738 129.332 50.721C129.113 52.1682 128.472 53.6261 127.41 55.0947C126.344 56.5679 125.154 57.6358 123.841 58.2984C122.532 58.9644 121.159 59.2092 119.723 59.0328C118.291 58.8599 116.857 58.2539 115.421 57.2149ZM114.794 53.3849L116.9 54.9083C117.885 55.6209 118.837 56.0358 119.755 56.1529C120.676 56.2654 121.562 56.0824 122.413 55.604C123.267 55.1209 124.086 54.3385 124.868 53.2566C125.651 52.1747 126.135 51.1571 126.319 50.2038C126.507 49.2458 126.405 48.3548 126.012 47.5308C125.627 46.7056 124.956 45.9466 123.999 45.254L121.816 43.6756L114.794 53.3849Z" fill="#02050A"/>
<path d="M132.722 71.472C131.75 70.5902 131.094 69.6266 130.753 68.5812C130.421 67.5355 130.403 66.4684 130.7 65.38C131.001 64.2873 131.611 63.2339 132.531 62.2197C133.436 61.2223 134.419 60.5188 135.482 60.1091C136.552 59.699 137.621 59.5947 138.688 59.7961C139.76 59.9933 140.758 60.5119 141.684 61.3517C142.282 61.8938 142.758 62.5021 143.113 63.1767C143.475 63.8509 143.679 64.5731 143.725 65.3432C143.775 66.1171 143.637 66.9202 143.311 67.7526C142.99 68.5808 142.443 69.4199 141.672 70.27L141.036 70.9707L133.089 63.7613L134.486 62.2211L140.243 67.4434C140.636 67.002 140.894 66.5268 141.018 66.018C141.146 65.5049 141.134 64.9987 140.981 64.4993C140.832 64.0038 140.539 63.5575 140.101 63.1604C139.634 62.7367 139.12 62.4781 138.561 62.3847C138.005 62.2871 137.462 62.3316 136.932 62.5183C136.41 62.7046 135.951 63.0126 135.553 63.4422L134.334 64.7867C133.822 65.3506 133.486 65.9281 133.326 66.5192C133.169 67.106 133.179 67.6747 133.355 68.2253C133.534 68.7717 133.872 69.2701 134.369 69.7205C134.701 70.0221 135.044 70.2488 135.397 70.4005C135.754 70.548 136.116 70.6189 136.482 70.6132C136.847 70.6075 137.205 70.5136 137.554 70.3317L139.47 72.5071C138.824 72.9488 138.12 73.2083 137.36 73.2856C136.607 73.3624 135.834 73.2513 135.039 72.9521C134.248 72.6487 133.476 72.1553 132.722 71.472Z" fill="#02050A"/>
<path d="M157.007 82.1874L154.896 80.3042C155.054 80.0548 155.159 79.7726 155.211 79.4575C155.267 79.1466 155.242 78.8174 155.135 78.47C155.029 78.1225 154.815 77.7715 154.496 77.4171C154.066 76.9403 153.601 76.6326 153.101 76.4942C152.605 76.3599 152.195 76.4433 151.869 76.7443C151.583 76.995 151.446 77.3058 151.459 77.6766C151.476 78.0516 151.65 78.5373 151.981 79.1337L153.122 81.1117C153.753 82.2104 154.055 83.1774 154.028 84.0128C154.005 84.8524 153.647 85.5882 152.955 86.2203C152.339 86.7678 151.637 87.0755 150.849 87.1434C150.069 87.2117 149.267 87.0516 148.442 86.663C147.617 86.2744 146.84 85.6751 146.109 84.8649C145.036 83.675 144.421 82.4926 144.265 81.3179C144.113 80.1393 144.421 79.0771 145.19 78.1312L147.42 80.1714C147.072 80.6684 146.935 81.1823 147.008 81.713C147.081 82.2438 147.356 82.773 147.831 83.3004C148.322 83.8447 148.828 84.1806 149.348 84.3081C149.873 84.4398 150.299 84.3572 150.628 84.0604C150.907 83.8093 151.04 83.4943 151.027 83.1155C151.018 82.7409 150.861 82.2862 150.555 81.7514L149.407 79.7792C148.761 78.6717 148.465 77.6869 148.522 76.8248C148.583 75.959 148.97 75.2086 149.682 74.5736C150.278 74.029 150.943 73.7235 151.679 73.6569C152.423 73.5907 153.181 73.7445 153.954 74.1184C154.735 74.4927 155.476 75.068 156.176 75.8444C157.204 76.9837 157.77 78.0992 157.874 79.1908C157.982 80.2866 157.693 81.2855 157.007 82.1874Z" fill="#02050A"/>
<path d="M155.161 95.2022L165.55 87.2372L167.427 89.6857L157.038 97.6506L155.161 95.2022ZM167.968 87.3378C167.671 86.95 167.543 86.5178 167.586 86.0412C167.633 85.5611 167.84 85.1811 168.205 84.9011C168.575 84.6176 168.995 84.5171 169.466 84.5996C169.942 84.6787 170.329 84.9121 170.626 85.2999C170.927 85.6922 171.052 86.1261 171.001 86.6017C170.959 87.0783 170.752 87.4583 170.383 87.7418C170.017 88.0218 169.597 88.1223 169.121 88.0432C168.653 87.9652 168.269 87.7301 167.968 87.3378Z" fill="#02050A"/>
<path d="M160.924 112.241C160.324 111.309 159.936 110.428 159.758 109.596C159.576 108.767 159.565 108.014 159.724 107.337C159.883 106.661 160.168 106.079 160.577 105.592L162.647 107.564C162.5 107.808 162.386 108.098 162.304 108.434C162.219 108.773 162.216 109.156 162.295 109.585C162.373 110.021 162.58 110.499 162.915 111.02C163.389 111.756 163.96 112.25 164.629 112.502C165.293 112.757 166.031 112.623 166.843 112.1L168.929 110.758L168.846 110.629C168.492 110.668 168.091 110.649 167.643 110.572C167.199 110.5 166.745 110.316 166.284 110.018C165.825 109.725 165.393 109.264 164.987 108.633C164.443 107.787 164.147 106.893 164.101 105.95C164.063 105.008 164.31 104.079 164.841 103.162C165.381 102.248 166.25 101.404 167.45 100.633C168.659 99.8547 169.808 99.3989 170.897 99.2652C171.995 99.1333 172.98 99.273 173.853 99.6843C174.73 100.092 175.441 100.719 175.986 101.565C176.401 102.21 176.632 102.811 176.68 103.368C176.735 103.927 176.69 104.429 176.544 104.874C176.403 105.317 176.24 105.688 176.056 105.989L176.148 106.133L177.968 104.961L179.615 107.52L168.427 114.719C167.486 115.325 166.563 115.602 165.657 115.549C164.752 115.497 163.896 115.18 163.089 114.598C162.282 114.016 161.56 113.23 160.924 112.241ZM167.488 108.047C167.842 108.596 168.277 108.979 168.793 109.193C169.31 109.408 169.884 109.455 170.515 109.332C171.145 109.21 171.812 108.923 172.514 108.471C173.207 108.025 173.749 107.535 174.141 106.999C174.536 106.468 174.752 105.916 174.79 105.345C174.835 104.775 174.678 104.211 174.318 103.652C173.946 103.074 173.485 102.688 172.935 102.494C172.385 102.301 171.784 102.276 171.132 102.418C170.486 102.557 169.83 102.841 169.166 103.268C168.492 103.702 167.965 104.179 167.585 104.701C167.212 105.225 167.01 105.771 166.977 106.339C166.952 106.909 167.122 107.478 167.488 108.047Z" fill="#02050A"/>
<path d="M180.767 120.736L173.924 124.203L172.53 121.451L184.207 115.534L185.54 118.165L183.556 119.17L183.625 119.307C184.415 119.244 185.152 119.409 185.835 119.802C186.52 120.2 187.084 120.835 187.526 121.707C187.934 122.512 188.117 123.302 188.076 124.074C188.037 124.852 187.774 125.571 187.287 126.232C186.803 126.898 186.093 127.465 185.158 127.932L177.722 131.699L176.328 128.947L183.337 125.396C184.118 125 184.626 124.488 184.862 123.859C185.1 123.235 185.039 122.569 184.679 121.859C184.435 121.377 184.112 121.003 183.709 120.736C183.314 120.471 182.865 120.333 182.361 120.32C181.861 120.313 181.329 120.451 180.767 120.736Z" fill="#02050A"/>
<path d="M186.334 154.384C185.974 153.247 185.87 152.204 186.022 151.256C186.174 150.307 186.529 149.5 187.087 148.835C187.652 148.173 188.376 147.702 189.259 147.422C189.925 147.211 190.559 147.159 191.159 147.267C191.761 147.38 192.358 147.608 192.949 147.951C193.543 148.299 194.157 148.724 194.793 149.226L197.735 151.539C198.154 151.883 198.556 152.116 198.94 152.239C199.326 152.366 199.731 152.363 200.153 152.229C200.511 152.116 200.801 151.857 201.024 151.453C201.25 151.053 201.279 150.591 201.112 150.066C201.001 149.714 200.818 149.429 200.564 149.211C200.318 148.997 200.038 148.857 199.724 148.789C199.412 148.727 199.108 148.743 198.81 148.838C198.447 148.953 198.11 149.17 197.8 149.489C197.492 149.813 197.188 150.201 196.891 150.653C196.595 151.111 196.281 151.597 195.95 152.114L189.277 162.821L188.268 159.636L193.638 150.799C194.048 150.139 194.456 149.497 194.86 148.874C195.267 148.256 195.719 147.71 196.219 147.236C196.725 146.766 197.325 146.42 198.018 146.201C198.804 145.952 199.563 145.911 200.295 146.078C201.033 146.243 201.684 146.594 202.247 147.131C202.812 147.673 203.234 148.383 203.512 149.26C203.79 150.138 203.856 150.945 203.708 151.684C203.561 152.422 203.254 153.052 202.788 153.576C202.322 154.099 201.751 154.468 201.074 154.682C200.289 154.931 199.523 154.96 198.776 154.767C198.035 154.573 197.303 154.209 196.579 153.675L193.051 151.092C192.475 150.667 191.944 150.4 191.457 150.293C190.975 150.183 190.59 150.174 190.303 150.265C189.865 150.404 189.502 150.641 189.215 150.977C188.928 151.312 188.739 151.714 188.65 152.184C188.567 152.657 188.612 153.164 188.784 153.706C188.973 154.302 189.292 154.847 189.741 155.343C190.195 155.836 190.747 156.243 191.397 156.561C192.046 156.88 192.762 157.07 193.545 157.132C194.332 157.192 195.152 157.087 196.002 156.818L196.803 159.345C195.752 159.678 194.8 159.851 193.946 159.866C193.098 159.878 192.347 159.786 191.694 159.587C191.047 159.387 190.498 159.132 190.048 158.822C189.915 158.721 189.783 158.626 189.653 158.536C189.523 158.446 189.392 158.35 189.258 158.249C188.542 157.833 187.935 157.271 187.437 156.565C186.941 155.864 186.573 155.137 186.334 154.384Z" fill="#02050A"/>
<path d="M193.916 185.803L193.107 179.944L210.397 177.555L211.223 183.532C211.46 185.249 211.318 186.771 210.796 188.1C210.28 189.433 209.424 190.52 208.227 191.363C207.03 192.205 205.533 192.75 203.738 192.998C201.937 193.247 200.343 193.126 198.956 192.635C197.569 192.15 196.443 191.328 195.578 190.168C194.713 189.014 194.159 187.559 193.916 185.803ZM196.249 182.702L196.605 185.277C196.772 186.481 197.13 187.456 197.68 188.2C198.236 188.943 198.981 189.457 199.915 189.741C200.855 190.024 201.986 190.074 203.309 189.891C204.631 189.709 205.701 189.354 206.517 188.828C207.339 188.302 207.912 187.612 208.236 186.758C208.566 185.91 208.65 184.9 208.488 183.729L208.12 181.062L196.249 182.702Z" fill="#02050A"/>
<path d="M195.583 208.16C195.548 206.848 195.79 205.708 196.31 204.739C196.835 203.776 197.594 203.025 198.586 202.487C199.583 201.949 200.766 201.661 202.135 201.625C203.481 201.589 204.669 201.813 205.7 202.297C206.736 202.786 207.55 203.486 208.143 204.397C208.742 205.307 209.057 206.387 209.091 207.637C209.113 208.443 209.002 209.208 208.76 209.93C208.524 210.659 208.143 211.305 207.619 211.871C207.094 212.442 206.418 212.898 205.592 213.238C204.771 213.578 203.787 213.764 202.64 213.794L201.694 213.82L201.407 203.094L203.486 203.038L203.694 210.808C204.284 210.786 204.806 210.644 205.26 210.382C205.719 210.12 206.076 209.761 206.331 209.305C206.586 208.855 206.705 208.334 206.69 207.744C206.673 207.113 206.504 206.563 206.185 206.095C205.871 205.625 205.464 205.264 204.962 205.01C204.467 204.762 203.927 204.643 203.341 204.653L201.527 204.702C200.766 204.722 200.116 204.879 199.578 205.172C199.046 205.464 198.642 205.865 198.366 206.372C198.095 206.88 197.969 207.468 197.987 208.139C197.999 208.587 198.072 208.992 198.207 209.352C198.347 209.712 198.546 210.022 198.803 210.282C199.06 210.543 199.375 210.736 199.748 210.862L199.501 213.751C198.735 213.589 198.061 213.261 197.48 212.765C196.904 212.274 196.449 211.638 196.116 210.857C195.788 210.076 195.61 209.177 195.583 208.16Z" fill="#02050A"/>
<path d="M207.986 234.712L195.273 229.102L195.523 225.702L208.921 222.014L208.68 225.295L198.761 227.581L198.751 227.717L208.227 231.44L207.986 234.712Z" fill="#02050A"/>
<path d="M192.789 246.402C193.016 245.11 193.481 244.04 194.183 243.195C194.89 242.355 195.783 241.771 196.862 241.441C197.946 241.112 199.163 241.066 200.512 241.303C201.838 241.536 202.958 241.992 203.871 242.671C204.789 243.357 205.448 244.205 205.847 245.216C206.252 246.227 206.347 247.349 206.131 248.58C205.991 249.374 205.731 250.102 205.35 250.762C204.973 251.428 204.471 251.986 203.844 252.436C203.217 252.891 202.464 253.203 201.586 253.372C200.714 253.542 199.713 253.528 198.582 253.329L197.651 253.166L199.506 242.597L201.554 242.957L200.21 250.612C200.793 250.709 201.333 250.674 201.829 250.507C202.331 250.342 202.753 250.061 203.093 249.665C203.433 249.274 203.654 248.788 203.756 248.206C203.865 247.585 203.81 247.013 203.59 246.49C203.376 245.968 203.049 245.532 202.608 245.184C202.172 244.842 201.666 244.618 201.091 244.511L199.303 244.197C198.553 244.065 197.885 244.09 197.3 244.269C196.72 244.45 196.244 244.762 195.872 245.204C195.506 245.648 195.265 246.2 195.149 246.86C195.071 247.302 195.063 247.713 195.123 248.093C195.189 248.473 195.322 248.817 195.522 249.123C195.722 249.429 195.992 249.682 196.332 249.88L195.515 252.661C194.797 252.35 194.202 251.894 193.731 251.292C193.264 250.697 192.945 249.983 192.774 249.151C192.608 248.321 192.613 247.404 192.789 246.402Z" fill="#02050A"/>
<path d="M206.248 267.527L189.362 263.107L190.143 260.122L207.029 264.542L206.248 267.527Z" fill="#02050A"/>
<path d="M184.866 276.779C185.29 275.573 185.923 274.621 186.765 273.924C187.607 273.226 188.59 272.801 189.716 272.649C190.84 272.502 192.039 272.653 193.315 273.102C194.591 273.551 195.623 274.185 196.413 275.005C197.201 275.83 197.704 276.778 197.924 277.849C198.143 278.921 198.041 280.059 197.617 281.265C197.192 282.471 196.559 283.423 195.718 284.12C194.876 284.818 193.891 285.239 192.761 285.384C191.63 285.534 190.427 285.385 189.151 284.936C187.876 284.488 186.847 283.851 186.064 283.028C185.28 282.21 184.778 281.266 184.559 280.194C184.339 279.123 184.442 277.985 184.866 276.779ZM187.192 277.615C186.962 278.269 186.949 278.879 187.153 279.445C187.363 280.013 187.736 280.511 188.271 280.941C188.805 281.375 189.447 281.725 190.198 281.989C190.953 282.254 191.675 282.385 192.364 282.38C193.055 282.383 193.661 282.228 194.18 281.917C194.699 281.606 195.074 281.123 195.304 280.469C195.539 279.799 195.553 279.178 195.345 278.605C195.135 278.037 194.761 277.535 194.222 277.098C193.686 276.669 193.041 276.321 192.285 276.055C191.535 275.791 190.816 275.659 190.13 275.658C189.441 275.663 188.838 275.821 188.319 276.133C187.803 276.451 187.427 276.945 187.192 277.615Z" fill="#02050A"/>
<path d="M175.637 287.848L191.913 295.533L190.618 298.277L188.66 297.353L188.584 297.514C188.804 297.794 189.014 298.141 189.214 298.556C189.419 298.974 189.531 299.46 189.552 300.017C189.577 300.575 189.426 301.201 189.098 301.895C188.666 302.809 188.043 303.524 187.229 304.038C186.417 304.559 185.455 304.821 184.341 304.823C183.231 304.833 182.018 304.527 180.703 303.906C179.403 303.293 178.399 302.558 177.691 301.702C176.983 300.846 176.563 299.938 176.432 298.978C176.302 298.017 176.456 297.072 176.895 296.142C177.215 295.464 177.594 294.955 178.031 294.615C178.468 294.274 178.91 294.043 179.357 293.921C179.807 293.807 180.211 293.743 180.569 293.73L180.624 293.614L174.319 290.638L175.637 287.848ZM184.703 295.475C183.937 295.113 183.216 294.904 182.538 294.849C181.859 294.798 181.26 294.901 180.742 295.16C180.227 295.425 179.83 295.854 179.551 296.445C179.26 297.061 179.181 297.655 179.313 298.227C179.45 298.8 179.757 299.329 180.233 299.811C180.712 300.301 181.321 300.72 182.061 301.07C182.796 301.417 183.498 301.619 184.168 301.678C184.837 301.737 185.432 301.634 185.953 301.371C186.473 301.108 186.88 300.665 187.173 300.043C187.455 299.447 187.537 298.867 187.42 298.303C187.303 297.739 187.013 297.216 186.55 296.733C186.084 296.256 185.468 295.836 184.703 295.475Z" fill="#02050A"/>
<path d="M171.433 307.632L182.51 314.608L180.939 317.103L179.057 315.918L178.975 316.048C179.464 316.678 179.719 317.372 179.739 318.13C179.763 318.891 179.542 319.641 179.076 320.382C178.604 321.132 178.023 321.649 177.334 321.933C176.646 322.226 175.923 322.281 175.165 322.099L175.092 322.214C175.553 322.847 175.783 323.569 175.782 324.381C175.783 325.201 175.531 326.012 175.025 326.815C174.383 327.834 173.537 328.463 172.488 328.702C171.438 328.94 170.295 328.671 169.059 327.892L161.623 323.21L163.272 320.592L170.304 325.02C170.991 325.453 171.609 325.587 172.156 325.421C172.708 325.259 173.151 324.913 173.484 324.384C173.881 323.754 173.994 323.137 173.824 322.533C173.655 321.937 173.258 321.442 172.633 321.048L165.724 316.698L167.336 314.138L174.476 318.634C175.048 318.994 175.614 319.108 176.174 318.977C176.73 318.851 177.182 318.511 177.53 317.958C177.766 317.583 177.885 317.181 177.887 316.752C177.893 316.327 177.781 315.913 177.549 315.513C177.323 315.115 176.982 314.772 176.525 314.485L169.789 310.243L171.433 307.632Z" fill="#02050A"/>
<path d="M152.791 334.162C153.619 333.144 154.546 332.437 155.572 332.04C156.598 331.652 157.662 331.577 158.765 331.815C159.873 332.056 160.957 332.609 162.02 333.473C163.064 334.322 163.82 335.266 164.286 336.305C164.754 337.351 164.915 338.413 164.772 339.49C164.633 340.571 164.169 341.596 163.38 342.566C162.871 343.191 162.289 343.7 161.635 344.09C160.981 344.489 160.271 344.731 159.505 344.818C158.734 344.91 157.925 344.816 157.076 344.535C156.232 344.259 155.365 343.758 154.474 343.034L153.74 342.437L160.511 334.113L162.124 335.425L157.22 341.455C157.682 341.824 158.17 342.056 158.685 342.152C159.204 342.252 159.709 342.213 160.199 342.033C160.686 341.857 161.116 341.541 161.489 341.082C161.887 340.593 162.117 340.066 162.18 339.502C162.248 338.942 162.174 338.402 161.959 337.883C161.745 337.372 161.412 336.93 160.962 336.556L159.554 335.411C158.963 334.93 158.368 334.626 157.769 334.498C157.175 334.373 156.608 334.414 156.067 334.619C155.531 334.827 155.052 335.192 154.629 335.712C154.346 336.06 154.138 336.415 154.005 336.776C153.877 337.14 153.826 337.505 153.852 337.87C153.877 338.235 153.99 338.587 154.19 338.926L152.122 340.956C151.646 340.335 151.349 339.646 151.23 338.891C151.113 338.144 151.182 337.365 151.438 336.555C151.699 335.749 152.15 334.951 152.791 334.162Z" fill="#02050A"/>
<path d="M147.131 352.476L141.709 347.051L143.891 344.87L153.145 354.129L151.059 356.214L149.487 354.64L149.378 354.749C149.684 355.48 149.756 356.231 149.595 357.003C149.43 357.778 149.002 358.511 148.311 359.202C147.672 359.841 146.979 360.26 146.231 360.461C145.48 360.666 144.715 360.64 143.935 360.382C143.152 360.129 142.393 359.631 141.658 358.887L135.765 352.992L137.947 350.811L143.502 356.368C144.121 356.987 144.766 357.311 145.437 357.339C146.103 357.371 146.718 357.106 147.281 356.544C147.663 356.163 147.918 355.739 148.046 355.273C148.175 354.815 148.167 354.345 148.023 353.863C147.874 353.384 147.577 352.922 147.131 352.476Z" fill="#02050A"/>
<path d="M132.957 372.739L131.428 370.906L137.207 366.086L138.736 367.919L132.957 372.739ZM139.318 371.517L136.949 373.493L129.077 364.056C128.811 363.737 128.559 363.533 128.321 363.443C128.083 363.361 127.857 363.356 127.645 363.43C127.432 363.503 127.228 363.622 127.032 363.786C126.883 363.91 126.757 364.033 126.653 364.157C126.545 364.284 126.465 364.384 126.414 364.456L124.47 362.937C124.56 362.788 124.701 362.589 124.893 362.34C125.081 362.095 125.339 361.828 125.668 361.539C126.247 361.026 126.856 360.67 127.495 360.469C128.138 360.273 128.774 360.268 129.403 360.454C130.027 360.644 130.599 361.055 131.118 361.687L139.318 371.517Z" fill="#02050A"/>
<path d="M46.6904 424.075C46.5626 424.612 46.8945 425.151 47.4318 425.279L56.1874 427.362C56.7247 427.49 57.2639 427.158 57.3917 426.621C57.5195 426.083 57.1876 425.544 56.6503 425.416L48.8676 423.565L50.7192 415.782C50.8471 415.245 50.5152 414.706 49.9779 414.578C49.4406 414.45 48.9014 414.782 48.7736 415.319L46.6904 424.075ZM115.265 381.516L47.139 423.455L48.1875 425.158L116.313 383.219L115.265 381.516Z" fill="#02050A"/>
</svg>
