<svg width="18" height="29" viewBox="0 0 18 29" fill="none" xmlns="http://www.w3.org/2000/svg">
<path d="M17.9659 13.8472C17.863 13.4128 17.544 13.0637 17.121 12.9231L10.813 10.8201L15.2929 1.86045C15.5741 1.29672 15.4058 0.611193 14.8948 0.242029C14.3813 -0.125848 13.6782 -0.0705643 13.2337 0.37634L0.37686 13.2332C0.0616951 13.5484 -0.0676457 14.0041 0.034095 14.4373C0.137036 14.8717 0.455972 15.2208 0.879048 15.3614L7.18697 17.4644L2.70712 26.424C2.4259 26.9877 2.59415 27.6733 3.10517 28.0424C3.61696 28.4092 4.31869 28.3555 4.76628 27.9081L17.6231 15.0512C17.9383 14.7361 18.0676 14.2804 17.9659 13.8472Z" fill="#02050A"/>
</svg>
