<svg width="25" height="24" viewBox="0 0 25 24" fill="none" xmlns="http://www.w3.org/2000/svg">
<path d="M13.7129 16.875H17.0879M17.0879 16.875H20.4629M17.0879 16.875V13.5M17.0879 16.875V20.25M6.21289 10.5H8.46289C9.05963 10.5 9.63192 10.2629 10.0539 9.84099C10.4758 9.41903 10.7129 8.84674 10.7129 8.25V6C10.7129 5.40326 10.4758 4.83097 10.0539 4.40901C9.63192 3.98705 9.05963 3.75 8.46289 3.75H6.21289C5.61615 3.75 5.04386 3.98705 4.6219 4.40901C4.19994 4.83097 3.96289 5.40326 3.96289 6V8.25C3.96289 8.84674 4.19994 9.41903 4.6219 9.84099C5.04386 10.2629 5.61615 10.5 6.21289 10.5ZM6.21289 20.25H8.46289C9.05963 20.25 9.63192 20.0129 10.0539 19.591C10.4758 19.169 10.7129 18.5967 10.7129 18V15.75C10.7129 15.1533 10.4758 14.581 10.0539 14.159C9.63192 13.7371 9.05963 13.5 8.46289 13.5H6.21289C5.61615 13.5 5.04386 13.7371 4.6219 14.159C4.19994 14.581 3.96289 15.1533 3.96289 15.75V18C3.96289 18.5967 4.19994 19.169 4.6219 19.591C5.04386 20.0129 5.61615 20.25 6.21289 20.25ZM15.9629 10.5H18.2129C18.8096 10.5 19.3819 10.2629 19.8039 9.84099C20.2258 9.41903 20.4629 8.84674 20.4629 8.25V6C20.4629 5.40326 20.2258 4.83097 19.8039 4.40901C19.3819 3.98705 18.8096 3.75 18.2129 3.75H15.9629C15.3662 3.75 14.7939 3.98705 14.3719 4.40901C13.9499 4.83097 13.7129 5.40326 13.7129 6V8.25C13.7129 8.84674 13.9499 9.41903 14.3719 9.84099C14.7939 10.2629 15.3662 10.5 15.9629 10.5Z" stroke="white" stroke-width="1.5" stroke-linecap="round" stroke-linejoin="round"/>
</svg>
